<svg xmlns="http://www.w3.org/2000/svg" viewBox="0 0 320 180" role="img">
  <title>Foto lateral del carro: el carro completo, de costado, de rueda a rueda</title>
  <defs>
    <linearGradient id="carroceria" x1="0" y1="0" x2="0" y2="1">
      <stop offset="0" stop-color="#2a78d6"/>
      <stop offset="1" stop-color="#005b96"/>
    </linearGradient>
    <linearGradient id="vidrio" x1="0" y1="0" x2="1" y2="1">
      <stop offset="0" stop-color="#cfe2f6"/>
      <stop offset="1" stop-color="#8fb6dd"/>
    </linearGradient>
    <linearGradient id="cielo" x1="0" y1="0" x2="0" y2="1">
      <stop offset="0" stop-color="#e8f1fc"/>
      <stop offset="1" stop-color="#f4f7fa"/>
    </linearGradient>
  </defs>
  <rect width="320" height="180" rx="10" fill="url(#cielo)"/>
  <rect x="0" y="146" width="320" height="34" fill="#dfe7ef"/>
  <ellipse cx="160" cy="148" rx="128" ry="7" fill="#17324d" opacity=".15"/>
  <!-- carrocería -->
  <path d="M38 118 L40 96 Q42 88 54 86 L96 80 L126 56 Q132 52 142 52 L206 52 Q216 52 224 58 L254 82 L274 86 Q286 90 286 102 L286 118 Q286 124 280 124 L44 124 Q38 124 38 118 Z" fill="url(#carroceria)" stroke="#17324d" stroke-width="2.5"/>
  <!-- vidrios -->
  <path d="M106 80 L132 60 Q136 58 142 58 L168 58 L168 80 Z" fill="url(#vidrio)" stroke="#17324d" stroke-width="2"/>
  <path d="M174 58 L204 58 Q212 58 218 64 L240 80 L174 80 Z" fill="url(#vidrio)" stroke="#17324d" stroke-width="2"/>
  <!-- puertas -->
  <path d="M170 84 V120 M108 84 L104 120" stroke="#17324d" stroke-width="2" opacity=".55"/>
  <path d="M146 92 h12 M210 92 h12" stroke="#e8f1fc" stroke-width="3" stroke-linecap="round"/>
  <!-- línea de brillo -->
  <path d="M48 100 H278" stroke="#ffffff" stroke-width="2" opacity=".35"/>
  <!-- espejo -->
  <path d="M100 82 L92 78 L92 84 Z" fill="#17324d"/>
  <!-- luces -->
  <rect x="276" y="94" width="10" height="7" rx="2" fill="#fab219"/>
  <rect x="38" y="96" width="8" height="8" rx="2" fill="#d03b3b"/>
  <!-- ruedas -->
  <g>
    <circle cx="88" cy="124" r="22" fill="#17324d"/>
    <circle cx="88" cy="124" r="13" fill="#c9d3dd"/>
    <g stroke="#7d8a96" stroke-width="3" stroke-linecap="round"><path d="M88 113v22M77 124h22M80 116l16 16M96 116l-16 16"/></g>
    <circle cx="88" cy="124" r="4" fill="#17324d"/>
  </g>
  <g>
    <circle cx="236" cy="124" r="22" fill="#17324d"/>
    <circle cx="236" cy="124" r="13" fill="#c9d3dd"/>
    <g stroke="#7d8a96" stroke-width="3" stroke-linecap="round"><path d="M236 113v22M225 124h22M228 116l16 16M244 116l-16 16"/></g>
    <circle cx="236" cy="124" r="4" fill="#17324d"/>
  </g>
  <!-- visor de cámara -->
  <g stroke="#005b96" stroke-width="5" stroke-linecap="round" fill="none">
    <path d="M14 38V14h24M282 14h24v24M306 142v24h-24M38 166H14v-24"/>
  </g>
</svg>
